<mxfile host="app.diagrams.net" modified="2024-03-13T13:12:35.099Z" agent="Mozilla/5.0 (Windows NT 10.0; Win64; x64) AppleWebKit/537.36 (KHTML, like Gecko) Chrome/122.0.0.0 Safari/537.36" etag="_jHtDUn4yZH0lO2FdL16" version="24.0.5" type="device">
  <diagram id="xqs5KKzRLcflo9ZkjbXo" name="Pagina-1">
    <mxGraphModel dx="1050" dy="569" grid="1" gridSize="10" guides="1" tooltips="1" connect="1" arrows="1" fold="1" page="1" pageScale="1" pageWidth="1169" pageHeight="826" math="0" shadow="0">
      <root>
        <mxCell id="0" />
        <mxCell id="1" parent="0" />
        <mxCell id="pRZwBdSZULmlvbbMmnOH-1" value="foaf:Person" style="graphMlID=n4;shape=rect;rounded=1;arcsize=30;fillColor=#ffff00;strokeColor=#000000;strokeWidth=1.0" parent="1" vertex="1">
          <mxGeometry x="520" y="295" width="90" height="54" as="geometry" />
        </mxCell>
        <mxCell id="pRZwBdSZULmlvbbMmnOH-2" value="cbo:Non-human&#xa;entity" style="graphMlID=n4;shape=rect;rounded=1;arcsize=30;fillColor=#ffff00;strokeColor=#000000;strokeWidth=1.0" parent="1" vertex="1">
          <mxGeometry x="520" y="440" width="90" height="50" as="geometry" />
        </mxCell>
        <mxCell id="pRZwBdSZULmlvbbMmnOH-12" value="db:Animal" style="graphMlID=n4;shape=rect;rounded=1;arcsize=30;fillColor=#ffff00;strokeColor=#000000;strokeWidth=1.0" parent="1" vertex="1">
          <mxGeometry x="270" y="310" width="90" height="54" as="geometry" />
        </mxCell>
        <mxCell id="pRZwBdSZULmlvbbMmnOH-14" value="db:Plant" style="graphMlID=n4;shape=rect;rounded=1;arcsize=30;fillColor=#ffff00;strokeColor=#000000;strokeWidth=1.0" parent="1" vertex="1">
          <mxGeometry x="270" y="390" width="90" height="50" as="geometry" />
        </mxCell>
        <mxCell id="pRZwBdSZULmlvbbMmnOH-15" value="move:Physical&#xa;Object" style="graphMlID=n4;shape=rect;rounded=1;arcsize=30;fillColor=#ffff00;strokeColor=#000000;strokeWidth=1.0" parent="1" vertex="1">
          <mxGeometry x="270" y="470" width="90" height="54" as="geometry" />
        </mxCell>
        <mxCell id="pRZwBdSZULmlvbbMmnOH-16" value="db:concept" style="graphMlID=n4;shape=rect;rounded=1;arcsize=30;fillColor=#ffff00;strokeColor=#000000;strokeWidth=1.0" parent="1" vertex="1">
          <mxGeometry x="270" y="550" width="90" height="54" as="geometry" />
        </mxCell>
        <mxCell id="pRZwBdSZULmlvbbMmnOH-34" value="cbo:Human&#xa;feature" style="graphMlID=n4;shape=rect;rounded=1;arcsize=30;fillColor=#ffff00;strokeColor=#000000;strokeWidth=1.0" parent="1" vertex="1">
          <mxGeometry x="825" y="510" width="90" height="54" as="geometry" />
        </mxCell>
        <mxCell id="pRZwBdSZULmlvbbMmnOH-40" value="fs:PerceptionExperience&#xa;" style="graphMlID=n4;shape=rect;rounded=1;arcsize=30;fillColor=#ffff00;strokeColor=#000000;strokeWidth=1.0" parent="1" vertex="1">
          <mxGeometry x="800" y="280" width="140" height="50" as="geometry" />
        </mxCell>
        <mxCell id="NNJp256DRyHXCbyauHiT-1" value="" style="graphMlID=e0;rounded=0;endArrow=block;strokeColor=#000080;strokeWidth=1.0;startArrow=oval;startFill=1;endFill=1;exitX=1;exitY=0.5;exitDx=0;exitDy=0;entryX=0;entryY=0.5;entryDx=0;entryDy=0;" parent="1" source="pRZwBdSZULmlvbbMmnOH-1" target="pRZwBdSZULmlvbbMmnOH-40" edge="1">
          <mxGeometry relative="1" as="geometry">
            <mxPoint x="630" y="250.08183758898736" as="sourcePoint" />
            <mxPoint x="781" y="250" as="targetPoint" />
          </mxGeometry>
        </mxCell>
        <mxCell id="NNJp256DRyHXCbyauHiT-2" value="&lt;span style=&quot;color: rgb(0, 0, 128); font-family: dialog; background-color: rgb(248, 249, 250);&quot;&gt;&lt;font style=&quot;font-size: 14px;&quot;&gt;exob:isEngagedIn&lt;/font&gt;&lt;/span&gt;" style="text;html=1;align=center;verticalAlign=middle;resizable=0;points=[];labelBackgroundColor=#ffffff;" parent="NNJp256DRyHXCbyauHiT-1" vertex="1" connectable="0">
          <mxGeometry x="-0.0174" y="2" relative="1" as="geometry">
            <mxPoint as="offset" />
          </mxGeometry>
        </mxCell>
        <mxCell id="NNJp256DRyHXCbyauHiT-3" value="" style="graphMlID=e0;rounded=0;endArrow=block;strokeColor=#000080;strokeWidth=1.0;startArrow=oval;startFill=1;endFill=1;entryX=0.5;entryY=1;entryDx=0;entryDy=0;" parent="1" source="pRZwBdSZULmlvbbMmnOH-34" target="pRZwBdSZULmlvbbMmnOH-40" edge="1">
          <mxGeometry relative="1" as="geometry">
            <mxPoint x="794.5" y="604.0818375889874" as="sourcePoint" />
            <mxPoint x="945.5" y="604" as="targetPoint" />
          </mxGeometry>
        </mxCell>
        <mxCell id="NNJp256DRyHXCbyauHiT-4" value="&lt;span style=&quot;color: rgb(0, 0, 128); font-family: dialog; background-color: rgb(248, 249, 250);&quot;&gt;&lt;font style=&quot;font-size: 14px;&quot;&gt;exob:isReflectionOn&lt;/font&gt;&lt;/span&gt;" style="text;html=1;align=center;verticalAlign=middle;resizable=0;points=[];labelBackgroundColor=#ffffff;" parent="NNJp256DRyHXCbyauHiT-3" vertex="1" connectable="0">
          <mxGeometry x="-0.0174" y="2" relative="1" as="geometry">
            <mxPoint as="offset" />
          </mxGeometry>
        </mxCell>
        <mxCell id="NNJp256DRyHXCbyauHiT-5" value="" style="graphMlID=e0;rounded=0;endArrow=block;strokeColor=#000080;strokeWidth=1.0;startArrow=oval;startFill=1;endFill=1;exitX=0;exitY=1;exitDx=0;exitDy=0;entryX=1;entryY=0;entryDx=0;entryDy=0;" parent="1" source="pRZwBdSZULmlvbbMmnOH-40" target="pRZwBdSZULmlvbbMmnOH-2" edge="1">
          <mxGeometry relative="1" as="geometry">
            <mxPoint x="570" y="240.08183758898736" as="sourcePoint" />
            <mxPoint x="721" y="240" as="targetPoint" />
          </mxGeometry>
        </mxCell>
        <mxCell id="NNJp256DRyHXCbyauHiT-6" value="&lt;span style=&quot;color: rgb(0, 0, 128); font-family: dialog; background-color: rgb(248, 249, 250);&quot;&gt;&lt;font style=&quot;font-size: 14px;&quot;&gt;cbo:involves&lt;/font&gt;&lt;/span&gt;" style="text;html=1;align=center;verticalAlign=middle;resizable=0;points=[];labelBackgroundColor=#ffffff;" parent="NNJp256DRyHXCbyauHiT-5" vertex="1" connectable="0">
          <mxGeometry x="-0.0174" y="2" relative="1" as="geometry">
            <mxPoint as="offset" />
          </mxGeometry>
        </mxCell>
        <mxCell id="NNJp256DRyHXCbyauHiT-7" value="" style="graphMlID=e0;rounded=0;endArrow=block;strokeColor=#000080;strokeWidth=1.0;startArrow=oval;startFill=1;endFill=1;exitX=1;exitY=0.5;exitDx=0;exitDy=0;entryX=0;entryY=0.5;entryDx=0;entryDy=0;" parent="1" source="pRZwBdSZULmlvbbMmnOH-2" target="pRZwBdSZULmlvbbMmnOH-34" edge="1">
          <mxGeometry relative="1" as="geometry">
            <mxPoint x="670" y="532" as="sourcePoint" />
            <mxPoint x="885" y="604" as="targetPoint" />
          </mxGeometry>
        </mxCell>
        <mxCell id="NNJp256DRyHXCbyauHiT-8" value="&lt;font style=&quot;font-size: 14px;&quot; face=&quot;dialog&quot; color=&quot;#000080&quot;&gt;&lt;span style=&quot;background-color: rgb(248, 249, 250);&quot;&gt;exob:producesObservation&lt;/span&gt;&lt;/font&gt;" style="text;html=1;align=center;verticalAlign=middle;resizable=0;points=[];labelBackgroundColor=#ffffff;" parent="NNJp256DRyHXCbyauHiT-7" vertex="1" connectable="0">
          <mxGeometry x="-0.0174" y="2" relative="1" as="geometry">
            <mxPoint x="4" y="5" as="offset" />
          </mxGeometry>
        </mxCell>
        <mxCell id="NNJp256DRyHXCbyauHiT-9" value="" style="graphMlID=e0;rounded=0;endArrow=block;strokeColor=#000080;strokeWidth=1.0;startArrow=oval;startFill=1;endFill=1;exitX=1;exitY=0.5;exitDx=0;exitDy=0;entryX=0;entryY=0;entryDx=0;entryDy=0;" parent="1" source="pRZwBdSZULmlvbbMmnOH-12" target="pRZwBdSZULmlvbbMmnOH-2" edge="1">
          <mxGeometry relative="1" as="geometry">
            <mxPoint x="530" y="620.0818375889874" as="sourcePoint" />
            <mxPoint x="681" y="620" as="targetPoint" />
          </mxGeometry>
        </mxCell>
        <mxCell id="NNJp256DRyHXCbyauHiT-10" value="&lt;span style=&quot;color: rgb(0, 0, 128); font-family: dialog; background-color: rgb(248, 249, 250);&quot;&gt;&lt;font style=&quot;font-size: 14px;&quot;&gt;rdfs:subclassof&lt;/font&gt;&lt;/span&gt;" style="text;html=1;align=center;verticalAlign=middle;resizable=0;points=[];labelBackgroundColor=#ffffff;" parent="NNJp256DRyHXCbyauHiT-9" vertex="1" connectable="0">
          <mxGeometry x="-0.0174" y="2" relative="1" as="geometry">
            <mxPoint as="offset" />
          </mxGeometry>
        </mxCell>
        <mxCell id="NNJp256DRyHXCbyauHiT-11" value="" style="graphMlID=e0;rounded=0;endArrow=block;strokeColor=#000080;strokeWidth=1.0;startArrow=oval;startFill=1;endFill=1;exitX=1;exitY=0.5;exitDx=0;exitDy=0;entryX=0;entryY=0.25;entryDx=0;entryDy=0;" parent="1" source="pRZwBdSZULmlvbbMmnOH-14" target="pRZwBdSZULmlvbbMmnOH-2" edge="1">
          <mxGeometry relative="1" as="geometry">
            <mxPoint x="550" y="640.0818375889874" as="sourcePoint" />
            <mxPoint x="701" y="640" as="targetPoint" />
          </mxGeometry>
        </mxCell>
        <mxCell id="NNJp256DRyHXCbyauHiT-12" value="&lt;font style=&quot;font-size: 14px;&quot;&gt;&lt;span style=&quot;color: rgb(0, 0, 128); font-family: dialog; background-color: rgb(248, 249, 250);&quot;&gt;rdfs:&lt;/span&gt;&lt;span style=&quot;color: rgb(0, 0, 128); font-family: dialog; background-color: rgb(248, 249, 250);&quot;&gt;&lt;font style=&quot;&quot;&gt;subclassof&lt;/font&gt;&lt;/span&gt;&lt;/font&gt;" style="text;html=1;align=center;verticalAlign=middle;resizable=0;points=[];labelBackgroundColor=#ffffff;" parent="NNJp256DRyHXCbyauHiT-11" vertex="1" connectable="0">
          <mxGeometry x="-0.0174" y="2" relative="1" as="geometry">
            <mxPoint as="offset" />
          </mxGeometry>
        </mxCell>
        <mxCell id="NNJp256DRyHXCbyauHiT-13" value="" style="graphMlID=e0;rounded=0;endArrow=block;strokeColor=#000080;strokeWidth=1.0;startArrow=oval;startFill=1;endFill=1;exitX=1;exitY=0.5;exitDx=0;exitDy=0;entryX=0;entryY=0.5;entryDx=0;entryDy=0;" parent="1" source="pRZwBdSZULmlvbbMmnOH-15" target="pRZwBdSZULmlvbbMmnOH-2" edge="1">
          <mxGeometry relative="1" as="geometry">
            <mxPoint x="540" y="576.5818375889874" as="sourcePoint" />
            <mxPoint x="691" y="576.5" as="targetPoint" />
          </mxGeometry>
        </mxCell>
        <mxCell id="NNJp256DRyHXCbyauHiT-14" value="&lt;span style=&quot;color: rgb(0, 0, 128); font-family: dialog; background-color: rgb(248, 249, 250);&quot;&gt;&lt;font style=&quot;font-size: 14px;&quot;&gt;rdfs:subclassof&lt;/font&gt;&lt;/span&gt;" style="text;html=1;align=center;verticalAlign=middle;resizable=0;points=[];labelBackgroundColor=#ffffff;" parent="NNJp256DRyHXCbyauHiT-13" vertex="1" connectable="0">
          <mxGeometry x="-0.0174" y="2" relative="1" as="geometry">
            <mxPoint as="offset" />
          </mxGeometry>
        </mxCell>
        <mxCell id="NNJp256DRyHXCbyauHiT-15" value="" style="graphMlID=e0;rounded=0;endArrow=block;strokeColor=#000080;strokeWidth=1.0;startArrow=oval;startFill=1;endFill=1;exitX=1;exitY=0.5;exitDx=0;exitDy=0;entryX=0;entryY=1;entryDx=0;entryDy=0;" parent="1" source="pRZwBdSZULmlvbbMmnOH-16" target="pRZwBdSZULmlvbbMmnOH-2" edge="1">
          <mxGeometry relative="1" as="geometry">
            <mxPoint x="530" y="620.0818375889874" as="sourcePoint" />
            <mxPoint x="681" y="620" as="targetPoint" />
          </mxGeometry>
        </mxCell>
        <mxCell id="NNJp256DRyHXCbyauHiT-16" value="&lt;span style=&quot;color: rgb(0, 0, 128); font-family: dialog; background-color: rgb(248, 249, 250);&quot;&gt;&lt;font style=&quot;font-size: 14px;&quot;&gt;rdfs:subclassof&lt;/font&gt;&lt;/span&gt;" style="text;html=1;align=center;verticalAlign=middle;resizable=0;points=[];labelBackgroundColor=#ffffff;" parent="NNJp256DRyHXCbyauHiT-15" vertex="1" connectable="0">
          <mxGeometry x="-0.0174" y="2" relative="1" as="geometry">
            <mxPoint as="offset" />
          </mxGeometry>
        </mxCell>
        <mxCell id="NNJp256DRyHXCbyauHiT-17" value="Prefixes" style="graphMlID=n0;shape=swimlane;startSize=20;fillColor=#b7b69e;strokeColor=#000000;strokeWidth=1.0;align=right;spacingRight=10;fontStyle=1" parent="1" vertex="1">
          <mxGeometry x="490" y="640" width="599.9964524373497" height="160" as="geometry" />
        </mxCell>
        <mxCell id="NNJp256DRyHXCbyauHiT-18" value="&lt;div style=&quot;&quot;&gt;&lt;b style=&quot;background-color: initial;&quot;&gt;db:&lt;/b&gt;&lt;/div&gt;&lt;b&gt;&lt;div style=&quot;&quot;&gt;&lt;b style=&quot;background-color: initial;&quot;&gt;foaf:&lt;/b&gt;&lt;/div&gt;&lt;div style=&quot;&quot;&gt;&lt;b style=&quot;background-color: initial;&quot;&gt;fs:&lt;/b&gt;&lt;br&gt;&lt;/div&gt;&lt;div style=&quot;&quot;&gt;&lt;b style=&quot;background-color: initial;&quot;&gt;cbo:&lt;/b&gt;&lt;br&gt;&lt;/div&gt;&lt;div style=&quot;&quot;&gt;&lt;b style=&quot;background-color: initial;&quot;&gt;exob:&lt;/b&gt;&lt;br&gt;&lt;/div&gt;&lt;div style=&quot;&quot;&gt;move:&lt;/div&gt;&lt;div style=&quot;&quot;&gt;rdfs:&lt;/div&gt;&lt;/b&gt;" style="text;html=1;align=center;verticalAlign=middle;resizable=0;points=[];autosize=1;fontFamily=Courier New;" parent="NNJp256DRyHXCbyauHiT-17" vertex="1">
          <mxGeometry x="-0.003547562650267011" y="24.99953721049043" width="60" height="110" as="geometry" />
        </mxCell>
        <mxCell id="NNJp256DRyHXCbyauHiT-19" value="&lt;div style=&quot;border-color: var(--border-color);&quot;&gt;http://dbpedia.org/resource/Knowledge&lt;/div&gt;&lt;div style=&quot;border-color: var(--border-color);&quot;&gt;http://xmlns.com/foaf/0.1/&lt;/div&gt;&lt;div style=&quot;border-color: var(--border-color);&quot;&gt;&lt;span style=&quot;background-color: initial;&quot;&gt;https://w3id.org/framester/data/framestercore/&lt;/span&gt;&lt;b style=&quot;background-color: initial; border-color: var(--border-color); text-align: center;&quot;&gt;&lt;span style=&quot;border-color: var(--border-color);&quot;&gt;&lt;span style=&quot;border-color: var(--border-color);&quot;&gt;&amp;nbsp; &amp;nbsp;&lt;/span&gt;&lt;/span&gt;&amp;nbsp;&lt;/b&gt;&lt;br&gt;&lt;/div&gt;&lt;span style=&quot;text-align: center;&quot;&gt;https://github.com/corrado877/CognitiveBiasOntologies/Anthropomorphism&lt;br&gt;&lt;/span&gt;&lt;span style=&quot;text-align: center;&quot;&gt;http://modellingdh.github.io/ont/odp/term/&lt;/span&gt;&lt;b&gt;&amp;nbsp;&lt;/b&gt;&lt;br&gt;http://www.ontologydesignpatterns.org/cp/owl/move.owl&lt;br&gt;http://www.w3.org/2002/07/owl#&lt;span style=&quot;border-color: var(--border-color); text-align: center;&quot;&gt;&lt;/span&gt;&lt;span style=&quot;border-color: var(--border-color); text-align: center;&quot;&gt;http://www.w3.org/2000/01/rdf-schema#&lt;/span&gt;&amp;nbsp;" style="text;html=1;align=left;verticalAlign=middle;resizable=0;points=[];autosize=1;fontFamily=Courier New;" parent="NNJp256DRyHXCbyauHiT-17" vertex="1">
          <mxGeometry x="69.99645243734973" y="24.99953721049055" width="530" height="110" as="geometry" />
        </mxCell>
      </root>
    </mxGraphModel>
  </diagram>
</mxfile>
